<?xml version="1.0" encoding="UTF-8"?>
<svg width="537px" height="132px" viewBox="0 0 537 132" version="1.1" xmlns="http://www.w3.org/2000/svg" xmlns:xlink="http://www.w3.org/1999/xlink">
    <title>Group 2</title>
    <g id="Page-1" stroke="none" stroke-width="1" fill="none" fill-rule="evenodd">
        <g id="banners" transform="translate(-1339.000000, -5181.000000)" fill="#FEFEFE" fill-rule="nonzero">
            <g id="app_outline_reversed_final" transform="translate(1110.000000, 4997.000000)">
                <g id="Group-2" transform="translate(229.000000, 184.000000)">
                    <path d="M23.4555558,39.9701193 L56.2759616,0 L87.4461794,39.9701193 L23.4555558,39.9701193 Z M52.6816697,101.46261 L2.01214711,93.2270089 L19.9385486,45.826547 L52.6816697,101.46261 Z M52.6816697,101.46261 L2.01214711,93.2270089 L19.9385486,45.826547 L52.6816697,101.46261 Z M90.7295422,46.0095604 L110.302246,93.4100223 L59.6327233,101.645624 L90.7295422,46.0095604 Z M91.2783096,39.4210792 L60.9131806,0.805258813 L110.302246,29.355344 L91.2783096,39.4210792 Z M19.2068587,39.4210792 L2.01214711,29.355344 L51.0353675,0.98827218 L19.2068587,39.4210792 Z M17.3776341,42.5323064 L-6.39488462e-14,88.285648 L-6.39488462e-14,32.4665712 L17.3776341,42.5323064 Z M54.3279718,105.488904 L54.3279718,126.901468 L2.92675943,97.253303 L54.3279718,105.488904 Z M57.9864211,105.488904 L109.387634,97.253303 L57.9864211,126.901468 L57.9864211,105.488904 Z M1.74625617,100.969174 L50.7187591,128.9519 L1.74625617,132 L1.74625617,100.969174 Z M112.497315,32.2835579 L112.497315,88.8346881 L93.2904567,42.5323064 L112.497315,32.2835579 Z" id="tether_icon_white_beta"></path>
                    <path d="M176.377315,110.4 C181.417315,110.4 185.737315,109.6 189.337315,108 C192.937315,106.4 195.657315,104.24 197.497315,101.52 C199.337315,98.8 200.257315,95.8 200.257315,92.52 C200.257315,87.88 198.737315,84.16 195.697315,81.36 C192.657315,78.56 187.417315,76.32 179.977315,74.64 C174.937315,73.52 171.097315,72.42 168.457315,71.34 C165.817315,70.26 164.017315,69.08 163.057315,67.8 C162.097315,66.52 161.617315,64.92 161.617315,63 C161.617315,59.88 162.817315,57.36 165.217315,55.44 C167.617315,53.52 171.137315,52.56 175.777315,52.56 C180.097315,52.56 183.277315,53.18 185.317315,54.42 C187.357315,55.66 189.177315,57.48 190.777315,59.88 C191.417315,60.92 192.297315,61.44 193.417315,61.44 L193.417315,61.44 L195.217315,61.44 C195.937315,61.44 196.557315,61.22 197.077315,60.78 C197.597315,60.34 197.857315,59.76 197.857315,59.04 C197.857315,57.68 197.037315,55.92 195.397315,53.76 C193.757315,51.6 191.277315,49.7 187.957315,48.06 C184.637315,46.42 180.577315,45.6 175.777315,45.6 C171.217315,45.6 167.317315,46.44 164.077315,48.12 C160.837315,49.8 158.397315,51.96 156.757315,54.6 C155.117315,57.24 154.297315,60.04 154.297315,63 C154.297315,67.32 155.597315,70.88 158.197315,73.68 C160.797315,76.48 165.657315,78.68 172.777315,80.28 C178.217315,81.56 182.317315,82.7 185.077315,83.7 C187.837315,84.7 189.837315,85.88 191.077315,87.24 C192.317315,88.6 192.937315,90.36 192.937315,92.52 C192.937315,96.04 191.417315,98.74 188.377315,100.62 C185.337315,102.5 181.337315,103.44 176.377315,103.44 C171.977315,103.44 168.517315,102.74 165.997315,101.34 C163.477315,99.94 161.337315,98 159.577315,95.52 C159.097315,94.88 158.677315,94.46 158.317315,94.26 C157.957315,94.06 157.497315,93.96 156.937315,93.96 L156.937315,93.96 L155.137315,93.96 C154.497315,93.96 153.897315,94.18 153.337315,94.62 C152.777315,95.06 152.497315,95.64 152.497315,96.36 C152.497315,97.72 153.397315,99.52 155.197315,101.76 C156.997315,104 159.677315,106 163.237315,107.76 C166.797315,109.52 171.177315,110.4 176.377315,110.4 Z M226.537315,132 C227.817315,132 228.737315,131.4 229.297315,130.2 L229.297315,130.2 L263.377315,51.6 C263.857315,50.4 264.097315,49.6 264.097315,49.2 C264.097315,48.56 263.857315,48 263.377315,47.52 C262.897315,47.04 262.337315,46.8 261.697315,46.8 L261.697315,46.8 L259.297315,46.8 C258.097315,46.8 257.177315,47.4 256.537315,48.6 L256.537315,48.6 L235.897315,96.12 L215.737315,48.6 C215.177315,47.4 214.257315,46.8 212.977315,46.8 L212.977315,46.8 L210.457315,46.8 C209.817315,46.8 209.257315,47.04 208.777315,47.52 C208.297315,48 208.057315,48.56 208.057315,49.2 C208.057315,49.6 208.297315,50.4 208.777315,51.6 L208.777315,51.6 L231.697315,105.6 L222.457315,127.2 C221.977315,128.4 221.737315,129.2 221.737315,129.6 C221.737315,130.24 221.977315,130.8 222.457315,131.28 C222.937315,131.76 223.497315,132 224.137315,132 L224.137315,132 L226.537315,132 Z M282.217315,132 C283.017315,132 283.657315,131.76 284.137315,131.28 C284.617315,130.8 284.857315,130.16 284.857315,129.36 L284.857315,129.36 L284.857315,100.92 C289.577315,107.24 296.297315,110.4 305.017315,110.4 C313.657315,110.4 320.037315,107.66 324.157315,102.18 C328.277315,96.7 330.457315,89.96 330.697315,81.96 C330.777315,81.16 330.817315,79.84 330.817315,78 C330.817315,76.16 330.777315,74.84 330.697315,74.04 C330.457315,66.04 328.277315,59.3 324.157315,53.82 C320.037315,48.34 313.657315,45.6 305.017315,45.6 C296.217315,45.6 289.497315,48.76 284.857315,55.08 L284.857315,55.08 L284.857315,49.44 C284.857315,48.64 284.617315,48 284.137315,47.52 C283.657315,47.04 283.017315,46.8 282.217315,46.8 L282.217315,46.8 L280.177315,46.8 C279.377315,46.8 278.737315,47.04 278.257315,47.52 C277.777315,48 277.537315,48.64 277.537315,49.44 L277.537315,49.44 L277.537315,129.36 C277.537315,130.16 277.777315,130.8 278.257315,131.28 C278.737315,131.76 279.377315,132 280.177315,132 L280.177315,132 L282.217315,132 Z M304.297315,103.44 C300.057315,103.44 296.497315,102.44 293.617315,100.44 C290.737315,98.44 288.577315,95.9 287.137315,92.82 C285.697315,89.74 284.937315,86.48 284.857315,83.04 L284.857315,83.04 L284.737315,78.36 L284.857315,73.68 C285.097315,68 286.817315,63.06 290.017315,58.86 C293.217315,54.66 297.977315,52.56 304.297315,52.56 C311.337315,52.56 316.297315,54.94 319.177315,59.7 C322.057315,64.46 323.497315,70.56 323.497315,78 C323.497315,79.44 323.457315,80.56 323.377315,81.36 C323.137315,87.84 321.517315,93.14 318.517315,97.26 C315.517315,101.38 310.777315,103.44 304.297315,103.44 Z M351.937315,109.2 C352.737315,109.2 353.377315,108.96 353.857315,108.48 C354.337315,108 354.577315,107.36 354.577315,106.56 L354.577315,106.56 L354.577315,73.08 C354.577315,66.68 356.297315,61.66 359.737315,58.02 C363.177315,54.38 367.777315,52.56 373.537315,52.56 C379.457315,52.56 383.997315,54.36 387.157315,57.96 C390.317315,61.56 391.897315,66.6 391.897315,73.08 L391.897315,73.08 L391.897315,106.56 C391.897315,107.36 392.137315,108 392.617315,108.48 C393.097315,108.96 393.737315,109.2 394.537315,109.2 L394.537315,109.2 L396.577315,109.2 C397.377315,109.2 398.017315,108.96 398.497315,108.48 C398.977315,108 399.217315,107.36 399.217315,106.56 L399.217315,106.56 L399.217315,72.48 C399.217315,64.56 397.097315,58.1 392.857315,53.1 C388.617315,48.1 382.577315,45.6 374.737315,45.6 C369.857315,45.6 365.877315,46.4 362.797315,48 C359.717315,49.6 356.977315,51.96 354.577315,55.08 L354.577315,55.08 L354.577315,26.64 C354.577315,25.84 354.337315,25.2 353.857315,24.72 C353.377315,24.24 352.737315,24 351.937315,24 L351.937315,24 L349.897315,24 C349.097315,24 348.457315,24.24 347.977315,24.72 C347.497315,25.2 347.257315,25.84 347.257315,26.64 L347.257315,26.64 L347.257315,106.56 C347.257315,107.36 347.497315,108 347.977315,108.48 C348.457315,108.96 349.097315,109.2 349.897315,109.2 L349.897315,109.2 L351.937315,109.2 Z M441.817315,110.4 C450.137315,110.4 456.597315,107.86 461.197315,102.78 C465.797315,97.7 468.217315,91.12 468.457315,83.04 C468.537315,82.24 468.577315,80.56 468.577315,78 C468.577315,75.44 468.537315,73.76 468.457315,72.96 C468.217315,64.88 465.797315,58.3 461.197315,53.22 C456.597315,48.14 450.137315,45.6 441.817315,45.6 C433.497315,45.6 427.037315,48.14 422.437315,53.22 C417.837315,58.3 415.417315,64.88 415.177315,72.96 L415.177315,72.96 L415.057315,78 L415.177315,83.04 C415.417315,91.12 417.837315,97.7 422.437315,102.78 C427.037315,107.86 433.497315,110.4 441.817315,110.4 Z M441.817315,103.44 C436.137315,103.44 431.557315,101.62 428.077315,97.98 C424.597315,94.34 422.737315,89.16 422.497315,82.44 L422.497315,82.44 L422.377315,78 L422.497315,73.56 C422.737315,66.84 424.597315,61.66 428.077315,58.02 C431.557315,54.38 436.137315,52.56 441.817315,52.56 C447.497315,52.56 452.077315,54.38 455.557315,58.02 C459.037315,61.66 460.897315,66.84 461.137315,73.56 C461.217315,74.36 461.257315,75.84 461.257315,78 C461.257315,80.16 461.217315,81.64 461.137315,82.44 C460.897315,89.16 459.037315,94.34 455.557315,97.98 C452.077315,101.62 447.497315,103.44 441.817315,103.44 Z M489.697315,109.2 C490.497315,109.2 491.137315,108.96 491.617315,108.48 C492.097315,108 492.337315,107.36 492.337315,106.56 L492.337315,106.56 L492.337315,73.08 C492.337315,66.68 494.057315,61.66 497.497315,58.02 C500.937315,54.38 505.537315,52.56 511.297315,52.56 C517.217315,52.56 521.757315,54.36 524.917315,57.96 C528.077315,61.56 529.657315,66.6 529.657315,73.08 L529.657315,73.08 L529.657315,106.56 C529.657315,107.36 529.897315,108 530.377315,108.48 C530.857315,108.96 531.497315,109.2 532.297315,109.2 L532.297315,109.2 L534.337315,109.2 C535.137315,109.2 535.777315,108.96 536.257315,108.48 C536.737315,108 536.977315,107.36 536.977315,106.56 L536.977315,106.56 L536.977315,72.48 C536.977315,64.56 534.857315,58.1 530.617315,53.1 C526.377315,48.1 520.337315,45.6 512.497315,45.6 C507.617315,45.6 503.637315,46.4 500.557315,48 C497.477315,49.6 494.737315,51.96 492.337315,55.08 L492.337315,55.08 L492.337315,49.44 C492.337315,48.64 492.097315,48 491.617315,47.52 C491.137315,47.04 490.497315,46.8 489.697315,46.8 L489.697315,46.8 L487.657315,46.8 C486.857315,46.8 486.217315,47.04 485.737315,47.52 C485.257315,48 485.017315,48.64 485.017315,49.44 L485.017315,49.44 L485.017315,106.56 C485.017315,107.36 485.257315,108 485.737315,108.48 C486.217315,108.96 486.857315,109.2 487.657315,109.2 L487.657315,109.2 L489.697315,109.2 Z" id="syphon"></path>
                </g>
            </g>
        </g>
    </g>
</svg>