<?xml version="1.0" encoding="UTF-8"?>
<svg width="566px" height="132px" viewBox="0 0 566 132" version="1.1" xmlns="http://www.w3.org/2000/svg" xmlns:xlink="http://www.w3.org/1999/xlink">
    <title>Group 2</title>
    <g id="Page-1" stroke="none" stroke-width="1" fill="none" fill-rule="evenodd">
        <g id="banners" transform="translate(-1339.000000, -5181.000000)" fill="#FEFEFE" fill-rule="nonzero">
            <g id="app_outline_reversed_final" transform="translate(1110.000000, 4997.000000)">
                <g id="Group-2" transform="translate(229.000000, 184.000000)">
                    <path d="M178.146204,100.8 C183.559538,100.8 188.199538,99.9407407 192.066204,98.2222222 C195.932871,96.5037037 198.854352,94.1837037 200.830649,91.2622222 C202.806945,88.3407407 203.795093,85.1185185 203.795093,81.5955556 C203.795093,76.6118519 202.162501,72.6162963 198.897315,69.6088889 C195.63213,66.6014815 190.003982,64.1955556 182.012871,62.3911111 C176.599538,61.1881481 172.475093,60.0066667 169.639538,58.8466667 C166.803982,57.6866667 164.870649,56.4192593 163.839538,55.0444444 C162.808427,53.6696296 162.292871,51.9511111 162.292871,49.8888889 C162.292871,46.5377778 163.58176,43.8311111 166.159538,41.7688889 C168.737315,39.7066667 172.518056,38.6755556 177.50176,38.6755556 C182.14176,38.6755556 185.557315,39.3414815 187.748427,40.6733333 C189.939538,42.0051852 191.894352,43.96 193.612871,46.5377778 C194.300278,47.6548148 195.245464,48.2133333 196.448427,48.2133333 L196.448427,48.2133333 L198.38176,48.2133333 C199.155093,48.2133333 199.821019,47.977037 200.379538,47.5044444 C200.938056,47.0318519 201.217315,46.4088889 201.217315,45.6355556 C201.217315,44.1748148 200.336575,42.2844444 198.575093,39.9644444 C196.813612,37.6444444 194.149908,35.6037037 190.583982,33.8422222 C187.018056,32.0807407 182.657315,31.2 177.50176,31.2 C172.603982,31.2 168.415093,32.1022222 164.935093,33.9066667 C161.455093,35.7111111 158.834352,38.0311111 157.072871,40.8666667 C155.31139,43.7022222 154.430649,46.7096296 154.430649,49.8888889 C154.430649,54.5288889 155.826945,58.3525926 158.619538,61.36 C161.41213,64.3674074 166.63213,66.7303704 174.279538,68.4488889 C180.122501,69.8237037 184.526204,71.0481481 187.490649,72.1222222 C190.455093,73.1962963 192.603241,74.4637037 193.935093,75.9244444 C195.266945,77.3851852 195.932871,79.2755556 195.932871,81.5955556 C195.932871,85.3762963 194.300278,88.2762963 191.035093,90.2955556 C187.769908,92.3148148 183.473612,93.3244444 178.146204,93.3244444 C173.420278,93.3244444 169.703982,92.5725926 166.997315,91.0688889 C164.290649,89.5651852 161.99213,87.4814815 160.10176,84.8177778 C159.586204,84.1303704 159.135093,83.6792593 158.748427,83.4644444 C158.36176,83.2496296 157.867686,83.1422222 157.266204,83.1422222 L157.266204,83.1422222 L155.332871,83.1422222 C154.645464,83.1422222 154.001019,83.3785185 153.399538,83.8511111 C152.798056,84.3237037 152.497315,84.9466667 152.497315,85.72 C152.497315,87.1807407 153.463982,89.1140741 155.397315,91.52 C157.330649,93.9259259 160.209167,96.0740741 164.032871,97.9644444 C167.856575,99.8548148 172.561019,100.8 178.146204,100.8 Z M232.02176,124 C233.396575,124 234.384723,123.355556 234.986204,122.066667 L234.986204,122.066667 L271.590649,37.6444444 C272.106204,36.3555556 272.363982,35.4962963 272.363982,35.0666667 C272.363982,34.3792593 272.106204,33.7777778 271.590649,33.2622222 C271.075093,32.7466667 270.473612,32.4888889 269.786204,32.4888889 L269.786204,32.4888889 L267.208427,32.4888889 C265.919538,32.4888889 264.93139,33.1333333 264.243982,34.4222222 L264.243982,34.4222222 L242.075093,85.4622222 L220.42176,34.4222222 C219.820278,33.1333333 218.83213,32.4888889 217.457315,32.4888889 L217.457315,32.4888889 L214.750649,32.4888889 C214.063241,32.4888889 213.46176,32.7466667 212.946204,33.2622222 C212.430649,33.7777778 212.172871,34.3792593 212.172871,35.0666667 C212.172871,35.4962963 212.430649,36.3555556 212.946204,37.6444444 L212.946204,37.6444444 L237.563982,95.6444444 L227.639538,118.844444 C227.123982,120.133333 226.866204,120.992593 226.866204,121.422222 C226.866204,122.10963 227.123982,122.711111 227.639538,123.226667 C228.155093,123.742222 228.756575,124 229.443982,124 L229.443982,124 L232.02176,124 Z M291.826204,124 C292.685464,124 293.372871,123.742222 293.888427,123.226667 C294.403982,122.711111 294.66176,122.023704 294.66176,121.164444 L294.66176,121.164444 L294.66176,90.6177778 C299.73139,97.4059259 306.949167,100.8 316.315093,100.8 C325.595093,100.8 332.447686,97.857037 336.872871,91.9711111 C341.298056,86.0851852 343.639538,78.8459259 343.897315,70.2533333 C343.983241,69.3940741 344.026204,67.9762963 344.026204,66 C344.026204,64.0237037 343.983241,62.6059259 343.897315,61.7466667 C343.639538,53.1540741 341.298056,45.9148148 336.872871,40.0288889 C332.447686,34.142963 325.595093,31.2 316.315093,31.2 C306.863241,31.2 299.645464,34.5940741 294.66176,41.3822222 L294.66176,41.3822222 L294.66176,35.3244444 C294.66176,34.4651852 294.403982,33.7777778 293.888427,33.2622222 C293.372871,32.7466667 292.685464,32.4888889 291.826204,32.4888889 L291.826204,32.4888889 L289.635093,32.4888889 C288.775834,32.4888889 288.088427,32.7466667 287.572871,33.2622222 C287.057315,33.7777778 286.799538,34.4651852 286.799538,35.3244444 L286.799538,35.3244444 L286.799538,121.164444 C286.799538,122.023704 287.057315,122.711111 287.572871,123.226667 C288.088427,123.742222 288.775834,124 289.635093,124 L289.635093,124 L291.826204,124 Z M315.54176,93.3244444 C310.987686,93.3244444 307.163982,92.2503704 304.070649,90.1022222 C300.977315,87.9540741 298.657315,85.2259259 297.110649,81.9177778 C295.563982,78.6096296 294.747686,75.1081481 294.66176,71.4133333 L294.66176,71.4133333 L294.532871,66.3866667 L294.66176,61.36 C294.919538,55.2592593 296.766945,49.9533333 300.203982,45.4422222 C303.641019,40.9311111 308.753612,38.6755556 315.54176,38.6755556 C323.103241,38.6755556 328.430649,41.2318519 331.523982,46.3444444 C334.617315,51.457037 336.163982,58.0088889 336.163982,66 C336.163982,67.5466667 336.121019,68.7496296 336.035093,69.6088889 C335.777315,76.5688889 334.037315,82.2614815 330.815093,86.6866667 C327.592871,91.1118519 322.50176,93.3244444 315.54176,93.3244444 Z M366.710649,99.5111111 C367.569908,99.5111111 368.257315,99.2533333 368.772871,98.7377778 C369.288427,98.2222222 369.546204,97.5348148 369.546204,96.6755556 L369.546204,96.6755556 L369.546204,60.7155556 C369.546204,53.8414815 371.393612,48.4496296 375.088427,44.54 C378.783241,40.6303704 383.723982,38.6755556 389.910649,38.6755556 C396.269167,38.6755556 401.145464,40.6088889 404.539538,44.4755556 C407.933612,48.3422222 409.630649,53.7555556 409.630649,60.7155556 L409.630649,60.7155556 L409.630649,96.6755556 C409.630649,97.5348148 409.888427,98.2222222 410.403982,98.7377778 C410.919538,99.2533333 411.606945,99.5111111 412.466204,99.5111111 L412.466204,99.5111111 L414.657315,99.5111111 C415.516575,99.5111111 416.203982,99.2533333 416.719538,98.7377778 C417.235093,98.2222222 417.492871,97.5348148 417.492871,96.6755556 L417.492871,96.6755556 L417.492871,60.0711111 C417.492871,51.5644444 415.215834,44.6259259 410.66176,39.2555556 C406.107686,33.8851852 399.620278,31.2 391.199538,31.2 C385.958056,31.2 381.683241,32.0592593 378.375093,33.7777778 C375.066945,35.4962963 372.123982,38.0311111 369.546204,41.3822222 L369.546204,41.3822222 L369.546204,10.8355556 C369.546204,9.9762963 369.288427,9.28888889 368.772871,8.77333333 C368.257315,8.25777778 367.569908,8 366.710649,8 L366.710649,8 L364.519538,8 C363.660278,8 362.972871,8.25777778 362.457315,8.77333333 C361.94176,9.28888889 361.683982,9.9762963 361.683982,10.8355556 L361.683982,10.8355556 L361.683982,96.6755556 C361.683982,97.5348148 361.94176,98.2222222 362.457315,98.7377778 C362.972871,99.2533333 363.660278,99.5111111 364.519538,99.5111111 L364.519538,99.5111111 L366.710649,99.5111111 Z M463.248427,100.8 C472.184723,100.8 479.123241,98.0718519 484.063982,92.6155556 C489.004723,87.1592593 491.603982,80.0918519 491.86176,71.4133333 C491.947686,70.5540741 491.990649,68.7496296 491.990649,66 C491.990649,63.2503704 491.947686,61.4459259 491.86176,60.5866667 C491.603982,51.9081481 489.004723,44.8407407 484.063982,39.3844444 C479.123241,33.9281481 472.184723,31.2 463.248427,31.2 C454.31213,31.2 447.373612,33.9281481 442.432871,39.3844444 C437.49213,44.8407407 434.892871,51.9081481 434.635093,60.5866667 L434.635093,60.5866667 L434.506204,66 L434.635093,71.4133333 C434.892871,80.0918519 437.49213,87.1592593 442.432871,92.6155556 C447.373612,98.0718519 454.31213,100.8 463.248427,100.8 Z M463.248427,93.3244444 C457.147686,93.3244444 452.228427,91.3696296 448.490649,87.46 C444.752871,83.5503704 442.755093,77.9866667 442.497315,70.7688889 L442.497315,70.7688889 L442.368427,66 L442.497315,61.2311111 C442.755093,54.0133333 444.752871,48.4496296 448.490649,44.54 C452.228427,40.6303704 457.147686,38.6755556 463.248427,38.6755556 C469.349167,38.6755556 474.268427,40.6303704 478.006204,44.54 C481.743982,48.4496296 483.74176,54.0133333 483.999538,61.2311111 C484.085464,62.0903704 484.128427,63.68 484.128427,66 C484.128427,68.32 484.085464,69.9096296 483.999538,70.7688889 C483.74176,77.9866667 481.743982,83.5503704 478.006204,87.46 C474.268427,91.3696296 469.349167,93.3244444 463.248427,93.3244444 Z M514.675093,99.5111111 C515.534352,99.5111111 516.22176,99.2533333 516.737315,98.7377778 C517.252871,98.2222222 517.510649,97.5348148 517.510649,96.6755556 L517.510649,96.6755556 L517.510649,60.7155556 C517.510649,53.8414815 519.358056,48.4496296 523.052871,44.54 C526.747686,40.6303704 531.688427,38.6755556 537.875093,38.6755556 C544.233612,38.6755556 549.109908,40.6088889 552.503982,44.4755556 C555.898056,48.3422222 557.595093,53.7555556 557.595093,60.7155556 L557.595093,60.7155556 L557.595093,96.6755556 C557.595093,97.5348148 557.852871,98.2222222 558.368427,98.7377778 C558.883982,99.2533333 559.57139,99.5111111 560.430649,99.5111111 L560.430649,99.5111111 L562.62176,99.5111111 C563.481019,99.5111111 564.168427,99.2533333 564.683982,98.7377778 C565.199538,98.2222222 565.457315,97.5348148 565.457315,96.6755556 L565.457315,96.6755556 L565.457315,60.0711111 C565.457315,51.5644444 563.180278,44.6259259 558.626204,39.2555556 C554.07213,33.8851852 547.584723,31.2 539.163982,31.2 C533.922501,31.2 529.647686,32.0592593 526.339538,33.7777778 C523.03139,35.4962963 520.088427,38.0311111 517.510649,41.3822222 L517.510649,41.3822222 L517.510649,35.3244444 C517.510649,34.4651852 517.252871,33.7777778 516.737315,33.2622222 C516.22176,32.7466667 515.534352,32.4888889 514.675093,32.4888889 L514.675093,32.4888889 L512.483982,32.4888889 C511.624723,32.4888889 510.937315,32.7466667 510.42176,33.2622222 C509.906204,33.7777778 509.648427,34.4651852 509.648427,35.3244444 L509.648427,35.3244444 L509.648427,96.6755556 C509.648427,97.5348148 509.906204,98.2222222 510.42176,98.7377778 C510.937315,99.2533333 511.624723,99.5111111 512.483982,99.5111111 L512.483982,99.5111111 L514.675093,99.5111111 Z" id="syphon"></path>
                    <path d="M23.4555558,39.9701193 L56.2759616,0 L87.4461794,39.9701193 L23.4555558,39.9701193 Z M52.6816697,101.46261 L2.01214711,93.2270089 L19.9385486,45.826547 L52.6816697,101.46261 Z M52.6816697,101.46261 L2.01214711,93.2270089 L19.9385486,45.826547 L52.6816697,101.46261 Z M90.7295422,46.0095604 L110.302246,93.4100223 L59.6327233,101.645624 L90.7295422,46.0095604 Z M91.2783096,39.4210792 L60.9131806,0.805258813 L110.302246,29.355344 L91.2783096,39.4210792 Z M19.2068587,39.4210792 L2.01214711,29.355344 L51.0353675,0.98827218 L19.2068587,39.4210792 Z M17.3776341,42.5323064 L-6.39488462e-14,88.285648 L-6.39488462e-14,32.4665712 L17.3776341,42.5323064 Z M54.3279718,105.488904 L54.3279718,126.901468 L2.92675943,97.253303 L54.3279718,105.488904 Z M57.9864211,105.488904 L109.387634,97.253303 L57.9864211,126.901468 L57.9864211,105.488904 Z M1.74625617,100.969174 L50.7187591,128.9519 L1.74625617,132 L1.74625617,100.969174 Z M112.497315,32.2835579 L112.497315,88.8346881 L93.2904567,42.5323064 L112.497315,32.2835579 Z" id="tether_icon_white_beta"></path>
                </g>
            </g>
        </g>
    </g>
</svg>