<?xml version="1.0" encoding="UTF-8"?>
<svg width="1024px" height="500px" viewBox="0 0 1024 500" version="1.1" xmlns="http://www.w3.org/2000/svg" xmlns:xlink="http://www.w3.org/1999/xlink">
    <title>app_outline_reversed_final</title>
    <g id="Page-1" stroke="none" stroke-width="1" fill="none" fill-rule="evenodd">
        <g id="banners" transform="translate(-1110.000000, -4399.000000)">
            <g id="app_outline_reversed_final" transform="translate(1110.000000, 4399.000000)">
                <rect id="Rectangle" stroke="#979797" fill="#34C7B5" x="0.5" y="0.5" width="1023" height="499"></rect>
                <text id="syphon" font-family="Rubik-Light, Rubik" font-size="120" font-weight="300" fill="#FEFEFE">
                    <tspan x="395.355841" y="291">syphon</tspan>
                </text>
                <path d="M243.515018,216 L286.213442,164 L326.765018,216 L243.515018,216 Z M281.537369,296 L215.617747,285.285714 L238.93949,223.619048 L281.537369,296 Z M281.537369,296 L215.617747,285.285714 L238.93949,223.619048 L281.537369,296 Z M331.03658,223.857143 L356.500117,285.52381 L290.580494,296.238095 L331.03658,223.857143 Z M331.750511,215.285714 L292.246333,165.047619 L356.500117,202.190476 L331.750511,215.285714 Z M237.987583,215.285714 L215.617747,202.190476 L279.395576,165.285714 L237.987583,215.285714 Z M235.607813,219.333333 L213,278.857143 L213,206.238095 L235.607813,219.333333 Z M283.679162,301.238095 L283.679162,329.095238 L216.807632,290.52381 L283.679162,301.238095 Z M288.438702,301.238095 L355.310232,290.52381 L288.438702,329.095238 L288.438702,301.238095 Z M215.27183,295.358053 L278.983678,331.762792 L215.27183,335.728284 L215.27183,295.358053 Z M359.355841,206 L359.355841,279.571429 L334.368258,219.333333 L359.355841,206 Z" id="tether_icon_white_beta" fill="#FEFEFE" fill-rule="nonzero"></path>
            </g>
        </g>
    </g>
</svg>